# xmcd
#
# Track frame offsets:
#	150
#	18750
#	30788
#	44085
#	56130
#	69424
#	85615
#	102527
#	110271
#	125210
#	132911
#	148082
#	158178
#	175300
#	187698
#	202893
#	231321
#	244131
#	253513
#	266097
#	286662
#	304605
#	322930
#	335071
#
# Disc length: 4584 seconds
#
# Revision: 1
# Processed by: cddbd v1.5.2PL0 Copyright (c) Steve Scherf et al.
# Submitted via: audiograbber 1.83.01
#
DISCID=5211e618
DTITLE=Various Artist - 40!!! Years Bear Family Records CD1
DYEAR=2015
DGENRE=Rock and Roll
TTITLE0=bela b and peta devlin feat. smokestack lightnin' - bärenjagd
TTITLE1=hawkins hawaii trio - alabama bear chase (instrumental)
TTITLE2=johnny trouble - die geschichte von bruno dem bär
TTITLE3=ian withcomb and his orchestra - autumn bears (instrumental)
TTITLE4=sabrina ascacibar - so etwas wie freude
TTITLE5=richard bennett - forbearance (instrumental)
TTITLE6=hotel ex - mit bären gehen
TTITLE7=los daytonas - the bear and the arbutus (instrumental)
TTITLE8=gunter gabriel - richard weize's bear family blues
TTITLE9=riders in the sky - bear creek hop (instrumental)
TTITLE10=roland heinrich - irgendwo im teufelsmoor
TTITLE11=the winnie winston combo - bears on parade (instrumental)
TTITLE12=jay sherman-godfrey - teddy bear's luau (instrumental)
TTITLE13=herman lammers meyer - bernie der braune kuschelbär
TTITLE14=crystalairs - die bärenkinder vom old tucker valley
TTITLE15=the see see - lonesome johnny bear (instrumental)
TTITLE16=götz alsmann - kleiner bär von berlin
TTITLE17=the maharajas - bear-files (instrumental)
TTITLE18=johnny tillotson - wooden soldiers
TTITLE19=chip taylor - barely nothing
TTITLE20=bob woodruff - what is heaven
TTITLE21=jerry k green - tripod the three legged bear
TTITLE22=bäddat för trubbel - björn
TTITLE23=bäddat för trubbel - blanda dig en björn
EXTD=
EXTT0=
EXTT1=
EXTT2=
EXTT3=
EXTT4=
EXTT5=
EXTT6=
EXTT7=
EXTT8=
EXTT9=
EXTT10=
EXTT11=
EXTT12=
EXTT13=
EXTT14=
EXTT15=
EXTT16=
EXTT17=
EXTT18=
EXTT19=
EXTT20=
EXTT21=
EXTT22=
EXTT23=
PLAYORDER=
